<svg xmlns="http://www.w3.org/2000/svg" width="14" height="20" viewBox="0 0 14 20">
    <path fill="#9390A2" fill-rule="nonzero" d="M12.765 8h-9.47V4.4C3.294 2.412 4.952.8 7 .8s3.706 1.612 3.706 3.6v.8c0 .22.184.4.412.4.227 0 .411-.18.411-.4v-.8C11.53 1.97 9.502 0 7 0S2.47 1.97 2.47 4.4V8H1.236C.553 8 0 8.537 0 9.2v9.6c0 .663.553 1.2 1.235 1.2h11.53c.682 0 1.235-.537 1.235-1.2V9.2c0-.663-.553-1.2-1.235-1.2zm-3.786 8.436c.041.13.02.274-.054.386A.392.392 0 0 1 8.6 17H5.402a.392.392 0 0 1-.325-.178.453.453 0 0 1-.055-.386L5.7 14.76c-.608-.555-.847-1.446-.607-2.262.198-.689.71-1.222 1.36-1.413.902-.279 1.863.154 2.309 1.039.445.885.254 1.983-.459 2.637l.677 1.676z"/>
</svg>
