<svg xmlns="http://www.w3.org/2000/svg" width="17" height="25" viewBox="0 0 17 25">
    <path fill="#FFF" fill-rule="nonzero" d="M0 23.5c0 .828.672 1.5 1.5 1.5h14c.828 0 1.5-.672 1.5-1.5V6H0v17.5zM6.5 10h6a.5.5 0 0 1 0 1h-6a.5.5 0 0 1 0-1zm0 4h6a.5.5 0 0 1 0 1h-6a.5.5 0 0 1 0-1zm0 4h6a.5.5 0 0 1 0 1h-6a.5.5 0 0 1 0-1zm-2-8a.5.5 0 1 1 0 1 .5.5 0 0 1 0-1zm0 4a.5.5 0 1 1 0 1 .5.5 0 0 1 0-1zm0 4a.5.5 0 1 1 0 1 .5.5 0 0 1 0-1zM17 3.5V5H0V3.5C0 2.672.672 2 1.5 2H3V.5a.5.5 0 0 1 1 0V2h4V.5a.5.5 0 0 1 1 0V2h4V.5a.5.5 0 0 1 1 0V2h1.5c.828 0 1.5.672 1.5 1.5z"/>
</svg>
