<svg xmlns="http://www.w3.org/2000/svg" width="271" height="53" viewBox="0 0 271 53">
    <g fill="#FFF" fill-rule="evenodd">
        <path d="M251.28 23.301h9.093l-4.436-11.88-4.656 11.88zm18.185 9.734h.295v.37h-8.315v-.37h.332c.518 0 .906-.167 1.165-.5.258-.333.387-.648.387-.944 0-.296-.05-.592-.147-.888l-2.366-6.291h-9.979l-2.477 6.328c-.1.296-.147.586-.147.87 0 .284.129.592.387.925.259.333.647.5 1.164.5h.333v.37h-7.429v-.37h.333c.616 0 1.22-.197 1.81-.592.592-.395 1.073-.975 1.442-1.74l8.353-19.91c.912-1.998 1.368-3.27 1.368-3.812h.333l9.906 23.722c.345.765.814 1.345 1.406 1.74.59.395 1.205.592 1.846.592zM133.181 23.624h9.094l-4.437-11.88-4.657 11.88zm18.185 9.733h.295v.37h-8.315v-.37h.332c.518 0 .906-.167 1.164-.5.26-.333.388-.648.388-.944 0-.296-.049-.592-.147-.888l-2.366-6.291h-9.98l-2.476 6.329a2.726 2.726 0 0 0-.147.87c0 .283.13.59.388.924.258.333.646.5 1.164.5H132v.37h-7.43v-.37h.333c.616 0 1.22-.198 1.811-.593.59-.394 1.072-.974 1.442-1.739l8.352-19.91c.912-1.998 1.37-3.27 1.37-3.812h.331l9.906 23.722c.346.765.814 1.345 1.405 1.739.591.395 1.206.593 1.847.593zM95.741 20.737c0 4.257-1.142 7.577-3.425 9.963-2.286 2.388-5.518 3.58-9.69 3.58-2.818 0-5.356-.593-7.616-1.78-2.26-1.188-4.015-2.807-5.264-4.861-1.246-2.052-1.87-4.347-1.87-6.882 0-2.535.618-4.83 1.854-6.884 1.234-2.051 2.938-3.666 5.113-4.842 2.174-1.173 4.595-1.762 7.263-1.762 1.68 0 3.39.23 5.132.687 1.742.458 3.193 1.07 4.353 1.836l.741 5.232H92c-.519-2.076-1.718-3.704-3.595-4.88-1.876-1.173-3.964-1.76-6.261-1.76-3.286 0-6.022 1.166-8.21 3.505-2.186 2.338-3.278 5.275-3.278 8.813 0 3.538 1.13 6.499 3.391 8.885 2.26 2.389 5.216 3.58 8.874 3.58 3.655 0 6.639-1.186 8.95-3.562 2.31-2.374 3.464-5.626 3.464-9.758h.37c.024.298.036.594.036.89M103.044 33.39c.641 0 1.191-.228 1.647-.688a2.39 2.39 0 0 0 .724-1.65V10.499a2.396 2.396 0 0 0-.724-1.652 2.246 2.246 0 0 0-1.647-.688h-.483v-.37h8.116v.37h-.483c-.89 0-1.567.387-2.036 1.151a2.276 2.276 0 0 0-.335 1.189v22.11h5.3c1.829 0 3.224-.407 4.188-1.223.963-.816 1.764-2.027 2.407-3.635h.372l-2.15 6.01h-15.379v-.371h.483zM171.449 7.788h7.45v.371h-.334c-.617 0-1.225.193-1.819.576-.59.385-1.06.96-1.405 1.725l-8.931 19.997c-.914 2.003-1.372 3.28-1.372 3.823h-.335l-10.408-23.781c-.348-.793-.824-1.379-1.429-1.764-.605-.383-1.22-.576-1.835-.576h-.298v-.37h8.34v.37h-.33c-.523 0-.913.168-1.173.501-.256.336-.388.645-.388.928 0 .286.063.574.187.872l7.743 19.443 8.077-19.443a2.83 2.83 0 0 0 .148-.872c0-.283-.126-.592-.39-.928-.259-.333-.647-.5-1.164-.5h-.334v-.372zM188.363 29.753c2.09 2.277 4.837 3.413 8.247 3.413 3.413 0 6.156-1.136 8.245-3.413 2.088-2.275 3.127-5.267 3.127-8.977s-1.04-6.704-3.127-8.98c-2.089-2.275-4.832-3.413-8.245-3.413-3.41 0-6.157 1.138-8.247 3.413-2.089 2.276-3.127 5.27-3.127 8.98 0 3.71 1.038 6.702 3.127 8.977M186.343 11c2.644-2.486 6.074-3.73 10.285-3.73 4.213 0 7.64 1.244 10.282 3.73 2.645 2.486 3.965 5.744 3.965 9.777 0 4.032-1.32 7.29-3.965 9.776-2.642 2.487-6.069 3.728-10.282 3.728-4.21 0-7.64-1.241-10.286-3.728-2.64-2.485-3.963-5.744-3.963-9.776 0-4.033 1.324-7.291 3.963-9.777M225.143 8.94h-2.371v22.112c0 .644.226 1.195.684 1.65.46.46 1.016.687 1.687.687h.443l.04.372h-8.116v-.372h.483c.641 0 1.19-.222 1.646-.667.457-.446.698-.988.725-1.632V10.5a2.405 2.405 0 0 0-.725-1.653 2.245 2.245 0 0 0-1.646-.686h-.483v-.372h10.004c2.246 0 4.016.626 5.3 1.874 1.283 1.25 1.925 2.871 1.925 4.862 0 1.992-.612 3.71-1.836 5.156-1.22 1.447-2.708 2.172-4.463 2.172.37.174.812.513 1.313 1.02.511.506.96 1.033 1.356 1.575 2.126 3.042 3.506 4.917 4.148 5.622.646.706 1.1 1.187 1.372 1.446.274.262.571.515.89.76.322.249.642.447.964.597a5.201 5.201 0 0 0 2.297.517v.372h-2.038c-1.059 0-2.054-.19-2.961-.575-.918-.383-1.6-.78-2.06-1.188a12.881 12.881 0 0 1-1.184-1.187c-.336-.382-1.257-1.662-2.761-3.84-1.51-2.177-2.386-3.418-2.634-3.73a16.302 16.302 0 0 0-.775-.906c-.79-.842-1.583-1.262-2.373-1.262v-.37c.198.023.46.034.777.034.322 0 .716-.011 1.185-.035 3.067-.073 4.993-1.361 5.785-3.861.149-.493.22-.957.22-1.39v-.835c-.047-1.657-.482-2.992-1.296-4.008-.815-1.012-1.916-1.557-3.3-1.633a58.64 58.64 0 0 0-2.222-.035M74.299 39.674h-.135c-.192 0-.373.053-.542.159-.171.106-.313.239-.43.4l-1.893 3.08v2.301c0 .168.059.31.178.429.118.12.264.178.437.178h.115v.097h-2.096v-.097h.125c.167 0 .31-.058.428-.173a.604.604 0 0 0 .188-.423v-2.321l-1.837-3.071a1.24 1.24 0 0 0-.409-.395 1.037 1.037 0 0 0-.553-.164h-.134v-.096h2.366v.096h-.126a.36.36 0 0 0-.326.193.425.425 0 0 0-.058.207c0 .068.015.133.048.197l1.443 2.696 1.538-2.706a.424.424 0 0 0 .047-.192.384.384 0 0 0-.066-.202.363.363 0 0 0-.328-.193h-.115v-.096H74.3v.096zM78.669 45.278c.542.59 1.255.886 2.14.886.885 0 1.597-.296 2.14-.886.54-.59.812-1.367.812-2.33 0-.963-.271-1.74-.813-2.33-.542-.59-1.254-.886-2.14-.886-.884 0-1.597.295-2.14.886-.54.59-.812 1.367-.812 2.33 0 .963.271 1.74.813 2.33m-.524-4.867c.686-.645 1.576-.968 2.669-.968 1.092 0 1.982.323 2.668.968.686.645 1.029 1.49 1.029 2.537 0 1.046-.343 1.892-1.03 2.536-.685.646-1.575.968-2.667.968-1.093 0-1.983-.322-2.67-.968-.685-.644-1.028-1.49-1.028-2.536 0-1.047.343-1.892 1.029-2.537M94.694 39.674h-.154a.517.517 0 0 0-.35.13.441.441 0 0 0-.16.323v3.813c0 .75-.237 1.356-.711 1.82-.474.461-1.106.692-1.894.692-.789 0-1.429-.23-1.919-.688-.49-.459-.735-1.064-.735-1.816v-3.793a.449.449 0 0 0-.25-.423.568.568 0 0 0-.26-.058h-.154v-.096h1.952v.096h-.154a.512.512 0 0 0-.355.13.459.459 0 0 0-.154.332v3.678c0 .7.187 1.265.562 1.694.375.43.877.646 1.505.646.628 0 1.138-.204 1.529-.612.39-.407.586-.942.586-1.602v-3.804a.459.459 0 0 0-.154-.332.513.513 0 0 0-.355-.13h-.154v-.096h1.779v.096zM100.617 39.877h-.615v5.737c0 .168.059.31.178.429a.59.59 0 0 0 .437.178h.116l.01.097h-2.107v-.097h.126a.59.59 0 0 0 .427-.173.604.604 0 0 0 .188-.423V40.28a.624.624 0 0 0-.188-.429.583.583 0 0 0-.427-.178h-.126v-.096h2.596c.584 0 1.042.162 1.375.486.334.324.5.745.5 1.261 0 .517-.158.964-.475 1.339-.317.375-.704.563-1.159.563.097.045.21.133.342.265.13.13.248.267.35.409.552.79.91 1.276 1.077 1.459.168.182.286.308.356.375s.148.133.231.197a1.347 1.347 0 0 0 .846.289v.097h-.529c-.276 0-.532-.05-.769-.15a1.912 1.912 0 0 1-.534-.308 3.525 3.525 0 0 1-.307-.308c-.087-.1-.326-.431-.717-.996-.39-.566-.618-.888-.682-.968a5.156 5.156 0 0 0-.202-.236c-.206-.218-.411-.327-.616-.327v-.097c.051.006.119.01.202.01.084 0 .186-.004.308-.01.795-.019 1.295-.352 1.5-1 .039-.129.058-.25.058-.362v-.217c-.013-.43-.125-.776-.337-1.04a1.122 1.122 0 0 0-.856-.423c-.153-.006-.346-.01-.577-.01M120.397 39.578h1.894v.096h-.077a.949.949 0 0 0-.495.15.831.831 0 0 0-.351.447l-1.596 5.093c-.129.405-.2.76-.212 1.07h-.086l-1.962-5.508-1.462 4.438a4.343 4.343 0 0 0-.202 1.07h-.086l-2.183-6.172a.926.926 0 0 0-.846-.588h-.077v-.096h2.135v.096h-.087c-.134 0-.236.044-.303.13a.409.409 0 0 0-.101.246c0 .077.01.148.03.212l1.461 4.688 1.788-5.526.086.01 1.895 5.324 1.29-4.506a.832.832 0 0 0 .028-.217.395.395 0 0 0-.097-.235c-.063-.084-.164-.126-.298-.126h-.086v-.096zM125.772 46.221c.166 0 .31-.06.428-.178a.614.614 0 0 0 .187-.428v-5.392a.497.497 0 0 0-.182-.39.638.638 0 0 0-.433-.159h-.116l-.009-.096h2.817c.199 0 .416-.02.65-.058a2.65 2.65 0 0 0 .494-.116v1.214h-.096v-.174a.543.543 0 0 0-.158-.394.544.544 0 0 0-.38-.173h-1.961v2.974h1.624a.478.478 0 0 0 .462-.481v-.135h.096v1.521h-.096v-.144a.472.472 0 0 0-.453-.472h-1.633v2.879h1.374c.475 0 .837-.106 1.086-.318.25-.212.46-.526.626-.943h.097l-.559 1.56h-3.99v-.097h.125zM134.109 46.221c.167 0 .31-.06.427-.178a.615.615 0 0 0 .188-.428V40.28a.615.615 0 0 0-.188-.429.578.578 0 0 0-.427-.178h-.125v-.096h2.107v.096h-.128c-.229 0-.404.1-.527.299a.582.582 0 0 0-.087.308v5.738h1.377c.472 0 .835-.106 1.084-.318.25-.212.46-.526.626-.943h.096l-.558 1.56h-3.99v-.097h.125zM142.254 46.221c.166 0 .309-.06.428-.178a.621.621 0 0 0 .188-.428V40.28a.622.622 0 0 0-.188-.429.585.585 0 0 0-.428-.178h-.126v-.096h2.107v.096h-.126c-.23 0-.405.1-.529.299a.592.592 0 0 0-.087.308v5.738h1.376c.475 0 .837-.106 1.087-.318.25-.212.458-.526.625-.943h.096l-.557 1.56h-3.992v-.097h.126zM157.321 39.674a.572.572 0 0 0-.413.169.59.59 0 0 0-.183.41v4.967c0 .372.022.725.068 1.059l.019.173h-.087l-5.24-5.603v4.795c0 .16.058.296.173.408a.57.57 0 0 0 .413.169h.183v.097h-1.981v-.097h.183c.16 0 .297-.056.413-.169a.562.562 0 0 0 .173-.419v-4.996c0-.392-.021-.741-.066-1.05l-.02-.153h.096l5.24 5.603v-4.776a.597.597 0 0 0-.596-.587h-.182v-.096h1.981v.096h-.174zM161.419 46.221c.166 0 .308-.06.427-.178a.615.615 0 0 0 .187-.428v-5.392a.495.495 0 0 0-.183-.39.634.634 0 0 0-.431-.159h-.116l-.01-.096h2.817c.198 0 .415-.02.651-.058.232-.039.397-.077.494-.116v1.214h-.097v-.174a.545.545 0 0 0-.158-.394.548.548 0 0 0-.38-.173h-1.962v2.974h1.625a.48.48 0 0 0 .328-.144.46.46 0 0 0 .134-.337v-.135h.096v1.521h-.096v-.144a.47.47 0 0 0-.451-.472h-1.636v2.879h1.376c.473 0 .836-.106 1.085-.318.25-.212.46-.526.626-.943h.097l-.557 1.56h-3.992v-.097h.126zM169.735 45.923a2.982 2.982 0 0 1-.029-.52c0-.257.049-.53.144-.818h.088c-.007.07-.01.14-.01.211 0 .392.118.717.356.977.236.26.55.39.943.39.403 0 .734-.121.994-.365s.39-.55.39-.92-.125-.67-.376-.9l-1.846-1.714c-.347-.32-.52-.71-.52-1.165 0-.455.153-.845.457-1.17.305-.324.717-.486 1.237-.486.243 0 .519.033.826.096h.376v1.185h-.087c0-.302-.105-.543-.313-.722-.209-.18-.476-.27-.802-.27-.328 0-.602.11-.823.328-.221.218-.332.49-.332.818 0 .327.129.61.385.847l1.894 1.752c.32.295.481.7.481 1.213 0 .513-.163.936-.49 1.266-.328.331-.763.496-1.308.496-.282 0-.582-.043-.9-.13-.317-.087-.562-.22-.735-.4M177.198 45.923c-.02-.09-.03-.264-.03-.52 0-.257.049-.53.145-.818h.086c-.005.07-.009.14-.009.211 0 .392.119.717.355.977.237.26.553.39.943.39.404 0 .735-.121.996-.365.26-.244.389-.55.389-.92s-.125-.67-.375-.9l-1.847-1.714a1.528 1.528 0 0 1-.519-1.165c0-.455.152-.845.457-1.17.304-.324.716-.486 1.235-.486.244 0 .52.033.827.096h.376v1.185h-.086c0-.302-.105-.543-.314-.722-.208-.18-.476-.27-.803-.27-.326 0-.6.11-.821.328-.222.218-.332.49-.332.818 0 .327.128.61.385.847l1.894 1.752c.32.295.48.7.48 1.213 0 .513-.163.936-.49 1.266-.327.331-.762.496-1.307.496-.282 0-.583-.043-.9-.13-.317-.087-.563-.22-.735-.4M190.896 45.48c-.638-.642-.958-1.488-.958-2.537 0-1.05.32-1.895.958-2.537.637-.642 1.482-.963 2.533-.963.86 0 1.619.218 2.278.655l.193 1.358h-.086c-.14-.553-.427-.978-.856-1.276-.43-.299-.94-.448-1.529-.448-.84 0-1.512.292-2.015.876-.503.584-.754 1.358-.754 2.32 0 .963.248 1.738.745 2.325.497.588 1.152.89 1.967.91.717 0 1.317-.195 1.797-.587.52-.424.834-1.114.942-2.07h.078l-.115 1.511c-.584.957-1.484 1.435-2.702 1.435-1.014-.006-1.839-.33-2.476-.972M201.492 45.278c.541.59 1.255.886 2.14.886.883 0 1.596-.296 2.138-.886.542-.59.813-1.367.813-2.33 0-.963-.27-1.74-.813-2.33-.542-.59-1.255-.886-2.138-.886-.885 0-1.599.295-2.14.886-.542.59-.813 1.367-.813 2.33 0 .963.27 1.74.813 2.33m-.524-4.867c.685-.645 1.574-.968 2.667-.968 1.093 0 1.983.323 2.669.968.686.645 1.029 1.49 1.029 2.537 0 1.046-.343 1.892-1.03 2.536-.685.646-1.575.968-2.668.968-1.093 0-1.982-.322-2.667-.968-.686-.644-1.03-1.49-1.03-2.536 0-1.047.344-1.892 1.03-2.537M218.074 39.674a.572.572 0 0 0-.414.169.586.586 0 0 0-.182.41v4.967c0 .372.021.725.067 1.059l.019.173h-.086l-5.241-5.603v4.795c0 .16.058.296.172.408a.574.574 0 0 0 .415.169h.182v.097h-1.98v-.097h.182c.16 0 .297-.056.414-.169a.561.561 0 0 0 .173-.419v-4.996c0-.392-.023-.741-.068-1.05l-.019-.153h.096l5.24 5.603v-4.776a.598.598 0 0 0-.182-.418.57.57 0 0 0-.413-.169h-.183v-.096h1.98v.096h-.172zM222.906 45.48c-.638-.642-.957-1.488-.957-2.537 0-1.05.319-1.895.957-2.537.637-.642 1.482-.963 2.533-.963.86 0 1.62.218 2.279.655l.193 1.358h-.086c-.141-.553-.427-.978-.856-1.276-.43-.299-.94-.448-1.53-.448-.84 0-1.511.292-2.014.876-.504.584-.754 1.358-.754 2.32 0 .963.247 1.738.744 2.325.497.588 1.153.89 1.966.91.719 0 1.318-.195 1.8-.587.518-.424.832-1.114.941-2.07h.077l-.115 1.511c-.583.957-1.484 1.435-2.703 1.435-1.013-.006-1.838-.33-2.475-.972M232.267 46.221c.167 0 .309-.06.429-.178a.618.618 0 0 0 .186-.428V40.27a.6.6 0 0 0-.186-.423.593.593 0 0 0-.429-.174h-.126v-.096h2.107v.096h-.125a.593.593 0 0 0-.429.174.6.6 0 0 0-.187.423v5.344c0 .167.061.31.183.428a.602.602 0 0 0 .433.178h.125v.096h-2.107v-.096h.126zM238.402 46.221c.166 0 .309-.06.428-.178a.618.618 0 0 0 .187-.428v-5.392a.496.496 0 0 0-.182-.39.64.64 0 0 0-.433-.159h-.115l-.01-.096h2.817c.198 0 .416-.02.65-.058.234-.039.399-.077.494-.116v1.214h-.095v-.174a.55.55 0 0 0-.159-.394.545.545 0 0 0-.38-.173h-1.961v2.974h1.623a.479.479 0 0 0 .462-.481v-.135h.096v1.521h-.096v-.144a.47.47 0 0 0-.452-.472h-1.633v2.879h1.374c.474 0 .836-.106 1.087-.318.25-.212.458-.526.624-.943h.097l-.558 1.56h-3.99v-.097h.125zM248.594 39.877h-.615v5.737c0 .168.059.31.178.429.118.12.265.178.437.178h.116l.01.097h-2.106v-.097h.124a.596.596 0 0 0 .43-.173.606.606 0 0 0 .187-.423V40.28a.626.626 0 0 0-.188-.429.589.589 0 0 0-.429-.178h-.124v-.096h2.595c.584 0 1.043.162 1.376.486.333.324.5.745.5 1.261 0 .517-.159.964-.476 1.339-.317.375-.704.563-1.16.563.097.045.211.133.343.265.131.13.249.267.35.409.552.79.91 1.276 1.077 1.459.168.182.286.308.357.375.07.067.147.133.23.197.085.064.167.116.25.154.186.09.386.135.597.135v.097h-.529c-.276 0-.533-.05-.77-.15a1.882 1.882 0 0 1-.533-.308 3.47 3.47 0 0 1-.308-.308c-.087-.1-.326-.431-.716-.996a29.857 29.857 0 0 0-.684-.968 4.497 4.497 0 0 0-.2-.236c-.207-.218-.411-.327-.617-.327v-.097c.051.006.12.01.203.01.083 0 .186-.004.307-.01.795-.019 1.295-.352 1.5-1 .038-.129.059-.25.059-.362v-.217c-.014-.43-.126-.776-.338-1.04a1.122 1.122 0 0 0-.856-.423 14.33 14.33 0 0 0-.577-.01M256.533 45.48c-.638-.642-.957-1.486-.957-2.532s.32-1.892.957-2.537c.638-.645 1.47-.968 2.495-.968.885 0 1.664.218 2.337.655l.192 1.358h-.087c-.14-.553-.424-.978-.85-1.276-.427-.299-.957-.448-1.592-.448-.815 0-1.472.296-1.976.886-.503.59-.754 1.367-.754 2.33 0 .963.25 1.738.754 2.325.504.587 1.161.884 1.976.89.417 0 .813-.073 1.188-.221a3.07 3.07 0 0 0 .985-.617v-1.704c0-.14-.042-.248-.13-.322a.54.54 0 0 0-.36-.111h-.154v-.096h1.885v.096h-.144c-.16 0-.282.037-.367.111-.083.074-.12.182-.114.322v1.589a3.057 3.057 0 0 1-.597.588c-.23.173-.54.325-.928.457a3.916 3.916 0 0 1-1.264.197c-1.025-.006-1.857-.33-2.495-.972M266.018 46.221c.167 0 .31-.06.428-.178a.617.617 0 0 0 .187-.428v-5.392a.497.497 0 0 0-.182-.39.637.637 0 0 0-.433-.159h-.115l-.01-.096h2.817c.198 0 .416-.02.65-.058.233-.039.399-.077.495-.116v1.214h-.096v-.174a.544.544 0 0 0-.16-.394.54.54 0 0 0-.379-.173h-1.961v2.974h1.624a.48.48 0 0 0 .328-.144.46.46 0 0 0 .134-.337v-.135h.097v1.521h-.097v-.144a.456.456 0 0 0-.13-.328.472.472 0 0 0-.322-.144h-1.634v2.879h1.376c.472 0 .836-.106 1.085-.318.25-.212.459-.526.626-.943h.095l-.557 1.56h-3.992v-.097h.126zM41.78 24.92c-5.666 0-10.938-4.195-12.01-9.551-.198-.99-.267-2.01-.21-3.035.257-4.43 2.918-8.465 6.947-10.53a10.168 10.168 0 0 1 1.146-.514 16.913 16.913 0 0 1 4.052-.783 15.102 15.102 0 0 1 4.348.357c3.137.73 7.771 3.294 7.667 7.37-.078 2.857-2.849 4.399-5.422 4.399-.407 0-.814-.038-1.214-.112-1.471-.278-2.21-1.24-2.574-2.002a6.891 6.891 0 0 0 1.457-.556c2.098-1.098 2.813-2.949 1.963-5.081-.435-1.083-1.12-1.898-2.049-2.42a4.765 4.765 0 0 0-1.249-.479 7.044 7.044 0 0 0-1.553-.178c-.789 0-1.557.143-2.278.425-2.952 1.157-4.88 4.729-5.159 9.554-.256 4.518 1.068 9.922 4.62 11.813.54.284 1.115.429 1.707.429.62 0 1.256-.156 1.899-.465.778-.37 1.6-.986 2.434-1.832.56-.566 1.142-1.013 1.72-1.326.786-.424 1.664-.638 2.62-.638.644 0 1.322.099 2.004.291.931.267 1.625.707 2.056 1.309.46.641.596 1.408.6 2.057-.982-.405-2.074-.608-3.274-.608-.25 0-.492.01-.742.025-1.007.068-2.071.273-3.156.612l-1.406.453c-.675.22-1.318.433-1.953.611-.964.27-1.97.406-2.992.406M13.9 24.476a11.09 11.09 0 0 1-2.995-.407 48.63 48.63 0 0 1-1.97-.617l-1.386-.446a13.87 13.87 0 0 0-3.162-.612c-.243-.016-.49-.025-.739-.025-1.196 0-2.29.204-3.271.608.003-.648.135-1.413.596-2.055.435-.604 1.128-1.046 2.06-1.31a7.402 7.402 0 0 1 2.004-.291c.955 0 1.833.214 2.613.635.585.316 1.165.763 1.724 1.328.854.86 1.651 1.46 2.44 1.835.635.307 1.274.462 1.894.462.596 0 1.17-.144 1.708-.428 3.55-1.892 4.876-7.295 4.616-11.815-.279-4.824-2.207-8.396-5.157-9.552a6.202 6.202 0 0 0-2.276-.426c-.507 0-1.026.06-1.543.177-.459.11-.876.268-1.252.477-.927.521-1.617 1.336-2.054 2.423-.853 2.131-.14 3.982 1.962 5.081.445.232.933.419 1.458.556-.365.764-1.105 1.724-2.574 2.002-.4.075-.807.112-1.214.112-2.574 0-5.348-1.542-5.424-4.4C1.853 3.715 6.488 1.15 9.632.42a15.002 15.002 0 0 1 4.343-.357c.406.026.823.07 1.25.132.942.136 1.894.357 2.831.66.002.002.448.164 1.118.505 4.026 2.064 6.688 6.1 6.944 10.532a12.01 12.01 0 0 1-.21 3.03c-1.071 5.358-6.346 9.554-12.009 9.554M41.762 52.7a16.87 16.87 0 0 1-4.077-.79s-.45-.166-1.12-.507c-4.029-2.066-6.691-6.1-6.945-10.528-.06-1.017.011-2.038.21-3.035 1.07-5.357 6.345-9.553 12.01-9.553 1.021 0 2.028.137 2.991.407.615.171 1.236.377 1.886.59l1.474.473a13.87 13.87 0 0 0 3.156.61c.246.018.496.026.745.026 1.193 0 2.286-.203 3.27-.605-.007.647-.139 1.412-.599 2.053-.432.604-1.125 1.044-2.06 1.31a7.309 7.309 0 0 1-2.002.293c-.954 0-1.835-.215-2.614-.638-.596-.32-1.157-.752-1.728-1.328-.842-.854-1.641-1.455-2.434-1.833-.643-.307-1.285-.465-1.9-.465-.599 0-1.174.147-1.71.433-3.546 1.89-4.872 7.296-4.607 11.817.278 4.822 2.206 8.393 5.154 9.547a6.218 6.218 0 0 0 2.278.427c.507 0 1.028-.06 1.542-.178a4.892 4.892 0 0 0 1.25-.475c.927-.52 1.617-1.334 2.056-2.42.852-2.132.139-3.984-1.96-5.082a6.843 6.843 0 0 0-1.46-.559c.363-.764 1.103-1.726 2.573-2.003a6.56 6.56 0 0 1 1.21-.112c2.642 0 5.352 1.513 5.427 4.402.106 4.075-4.53 6.639-7.671 7.367a14.876 14.876 0 0 1-4.345.356M13.072 52.286a15.01 15.01 0 0 1-3.382-.384c-3.14-.73-7.778-3.294-7.672-7.369.075-2.859 2.848-4.404 5.422-4.404.406 0 .814.038 1.213.114 1.47.276 2.212 1.238 2.574 2.003a6.855 6.855 0 0 0-1.46.558c-2.097 1.095-2.81 2.949-1.956 5.08.432 1.083 1.121 1.898 2.046 2.419.396.217.816.376 1.256.478a6.93 6.93 0 0 0 1.542.179c.789 0 1.557-.143 2.28-.428 2.95-1.153 4.877-4.724 5.156-9.546.263-4.521-1.064-9.93-4.616-11.818a3.583 3.583 0 0 0-1.706-.432c-.616 0-1.253.157-1.896.462-.795.38-1.594.981-2.437 1.836-.57.573-1.132 1.007-1.723 1.325-.783.426-1.664.64-2.617.64-.646 0-1.32-.098-2.002-.293-.938-.266-1.63-.706-2.058-1.306-.463-.643-.595-1.409-.6-2.057.982.402 2.076.606 3.27.606.25 0 .498-.009.744-.025a13.887 13.887 0 0 0 3.157-.612l1.479-.475a48.464 48.464 0 0 1 1.88-.59 11.13 11.13 0 0 1 2.989-.405c5.665 0 10.941 4.196 12.009 9.552.197.99.27 2.012.214 3.038-.255 4.427-2.917 8.46-6.947 10.526-.668.341-1.117.508-1.15.519a16.984 16.984 0 0 1-4.044.779c-.329.02-.652.03-.965.03M27.557 21.163c-1.105 3.875-5.344 5.242-5.344 5.242 4.912 1.18 5.344 5.641 5.344 5.641s.432-4.462 5.343-5.641c0 0-4.24-1.367-5.343-5.242"/>
    </g>
</svg>
