<svg xmlns="http://www.w3.org/2000/svg" width="36" height="19" viewBox="0 0 36 19">
    <g fill="#FFF" fill-rule="nonzero">
        <path d="M9.661 10.356a6.348 6.348 0 0 0-3.646-1.133C2.693 9.223 0 11.685 0 14.723v3.392c0 .397.352.72.787.72h6.347v-3.47c0-2.002.983-3.797 2.527-5.009zM6.015 8.21a4.103 4.103 0 1 0 0-8.206 4.103 4.103 0 0 0 0 8.207zM13.367 10.994a4.615 4.615 0 0 0-4.615 4.615v2.438c0 .435.353.787.787.787H17.195a.787.787 0 0 0 .787-.787V15.61a4.615 4.615 0 0 0-4.615-4.615zM11.398 9.507c.541.437 1.22.71 1.97.71a3.12 3.12 0 0 0 1.968-.71 3.128 3.128 0 0 0 1.18-2.438 3.148 3.148 0 1 0-6.297 0c0 .99.465 1.861 1.18 2.438zM23 8h13l-6.5 7.8z"/>
    </g>
</svg>
