<svg xmlns="http://www.w3.org/2000/svg" width="158" height="146" viewBox="0 0 158 146">
    <g fill="none" fill-rule="evenodd" stroke="#FFF">
        <path d="M96.7 32.5l-.414 22.122-30.392 27.062H53.5v53.86h27.93l.148.16a30.53 30.53 0 0 0 22.409 9.796H135a9.5 9.5 0 0 0 4.146-18.05l-1.955-.95H148a9.5 9.5 0 0 0 9.5-9.5 9.504 9.504 0 0 0-6.525-9.025l-1.442-.475 1.442-.475a9.504 9.504 0 0 0-.518-18.204l-1.488-.398 1.438-.552A9.503 9.503 0 0 0 156.5 79a9.5 9.5 0 0 0-9.5-9.5h-21c-1.817 0-3.557.51-5.06 1.458l-.767.484V51c0-10.217-8.283-18.5-18.5-18.5H96.7z"/>
        <rect width="33" height="19" x="111.5" y="126.5" rx="9.5"/>
        <rect width="43" height="19" x="114.5" y="107.5" rx="9.5"/>
        <rect width="41" height="19" x="116.5" y="88.5" rx="9.5"/>
        <rect width="40" height="19" x="116.5" y="69.5" rx="9.5"/>
        <path d="M.5 72.5h53v73H.5zM61 46h20M134 46h20M140 13l-14 14M75 14l14 13M108 0v20"/>
    </g>
</svg>
