<svg xmlns="http://www.w3.org/2000/svg" xmlns:xlink="http://www.w3.org/1999/xlink" width="356" height="522" viewBox="0 0 356 522">
    <defs>
        <path id="a" d="M0 0h360v527H0z"/>
    </defs>
    <g fill="none" fill-rule="evenodd" opacity=".702" transform="translate(-4)">
        <mask id="b" fill="#fff">
            <use xlink:href="#a"/>
        </mask>
        <g mask="url(#b)">
            <path fill="#FF7273" d="M279.555 487.416h8.309c-.337 0-1.57-1.87-1.835-2.178-.311-.36-1.413-2.136-1.876-2.136h-8.309c.337 0 1.57 1.868 1.835 2.178.311.36 1.413 2.136 1.876 2.136M95.953 408.157l4.684-5.35c.041-.047-3.623-4.373-3.638-4.355-1.56 1.781-3.122 3.563-4.682 5.35-.041.045 3.62 4.372 3.636 4.355M256.08 140.722c2.784-2.562 4.927-5.765 6.355-9.51.08-.205-1.704-2.056-1.887-2.273-.174-.207-1.995-2.052-1.926-2.232-1.428 3.74-3.57 6.948-6.354 9.507.095-.088 3.652 4.655 3.812 4.508M360.561 321.875c3.586-1.416 7.22-1.917 10.977-1.506-.412-.046-1.58-2.04-1.89-2.43-.36-.455-1.39-2.324-1.929-2.383-3.754-.408-7.39.09-10.974 1.508.727-.288 3.017 5.128 3.816 4.811"/>
            <path fill="#FFC764" d="M35.58 224.153c3.968-.085 7.673 1.058 10.97 3.38-1.483-1.045-2.329-3.11-3.824-4.165-3.298-2.324-7.002-3.465-10.97-3.38.334-.007 1.627 1.815 1.892 2.103.311.338 1.47 2.072 1.932 2.062M257.555 259.45c3.425-.367 6.729.134 9.968 1.511-.6-.255-1.477-1.878-1.93-2.444-.504-.625-1.27-2.099-1.97-2.398-3.24-1.377-6.544-1.879-9.968-1.511.293-.031 1.683 2.138 1.929 2.444.288.356 1.549 2.444 1.97 2.398"/>
            <path fill="#6487FE" d="M12.812 354.236c2.77-1.206 5.541-2.411 8.312-3.615-.106.046-1.673-1.812-1.835-1.983-.177-.188-1.674-2.03-1.872-1.945-2.771 1.206-5.543 2.412-8.312 3.62.106-.049 1.671 1.808 1.833 1.979.178.189 1.674 2.031 1.874 1.944M273.197 356.868c4.651.611 9.04-3.017 10.042-8.297.065-.34-1.66-2.034-1.893-2.312-.227-.27-1.995-1.936-1.932-2.264-1.002 5.282-5.392 8.908-10.042 8.297.429.056 1.57 1.925 1.892 2.31.374.447 1.377 2.193 1.933 2.266"/>
            <path fill="#FFC764" d="M107.888 518.402l-.41.51c-.75.936-.326 2.472 1.019 2.472 1.339 0 1.77-1.536 1.018-2.472l-.41-.51c-.272-.339-.947-.337-1.217 0M88.618 291.695c0-4.31-7.397-4.318-7.397 0 0 4.31 7.397 4.317 7.397 0M12.803 95.973c0-5.028-8.321-5.036-8.321 0 0 5.03 8.32 5.036 8.32 0M254.117 14.02c0-2.156-2.774-2.161-2.774 0 0 2.154 2.774 2.156 2.774 0M355.82 142.882c0-4.31-5.547-4.318-5.547 0 0 4.31 5.547 4.316 5.547 0M335.75 422.879c-.117.565-.27 1.13-.27 1.733 0 .916.29 1.513.643 2.193.53 1.02 1.883 1.013 2.41 0 .354-.68.645-1.277.645-2.193 0-.603-.152-1.168-.27-1.733-.494-2.374-2.665-2.378-3.159 0"/>
            <path fill="#6487FE" d="M134.847 71.711c0-4.31-5.548-4.318-5.548 0 0 4.31 5.548 4.316 5.548 0M327.158 216.749c0-2.156-2.774-2.158-2.774 0 0 2.155 2.774 2.159 2.774 0"/>
            <path fill="#FF7273" d="M16.964 437.272c0-2.155-3.699-2.158-3.699 0 0 2.155 3.699 2.159 3.699 0M209.737 167.146c0-2.156-2.773-2.16-2.773 0 0 2.153 2.773 2.157 2.773 0M357.67 54.996c0-2.155-2.775-2.159-2.775 0 0 2.155 2.774 2.159 2.774 0M224.592 24.46c.07.261.139.523.208.788.416 1.562 2.744 1.562 3.16 0l.207-.788c.309-1.167-.582-2.354-1.788-2.354-1.203 0-2.097 1.187-1.787 2.354"/>
            <path fill="#FFC764" d="M120.7 466.927c0-.276-.368-.277-.368 0 0 .276.368.277.368 0M69.933 126.167c0-.403-.538-.403-.538 0 0 .404.538.404.538 0M297.478 62.544c0-.553-.737-.554-.737 0s.737.555.737 0"/>
            <path fill="#FF7273" d="M50.277 11.85c2.58-1.923 5.596-2.083 8.292-.431-.635-.39-1.35-1.823-1.845-2.472-.535-.7-1.18-1.992-1.884-2.423-2.696-1.65-5.712-1.49-8.29.435.326-.246 3.333 5.187 3.727 4.891"/>
            <path fill="#6487FE" d="M314.432 10.243c3.847-.686 7.237-2.552 9.951-5.475.072-.078-3.93-4.213-3.918-4.229-2.713 2.923-6.104 4.787-9.95 5.476.242-.044 1.717 1.895 1.938 2.133.256.279 1.613 2.16 1.98 2.095"/>
        </g>
    </g>
</svg>
